HIERARCHY
ROOT Armature
{
  OFFSET 1.9679 50.7869 13.0653
  CHANNELS 6 Xposition Yposition Zposition Zrotation Xrotation Yrotation
  JOINT Core
  {
    OFFSET -0.635206 16.8572 -51.0592
    CHANNELS 6 Xposition Yposition Zposition Zrotation Xrotation Yrotation
    JOINT FrontLegIK.L
    {
      OFFSET 10.7636 40.3514 -10.2983
      CHANNELS 6 Xposition Yposition Zposition Zrotation Xrotation Yrotation
      JOINT FrontPaw.L
      {
        OFFSET 0 1.73155e-005 0
        CHANNELS 6 Xposition Yposition Zposition Zrotation Xrotation Yrotation
        End Site
        {
          OFFSET 0 4.33935 0
        }
      }
      JOINT FrontLegIKPole.L
      {
        OFFSET 0 27.4489 11.7029
        CHANNELS 6 Xposition Yposition Zposition Zrotation Xrotation Yrotation
        End Site
        {
          OFFSET 0 6.85387 0
        }
      }
    }
    JOINT BackLegIK.L
    {
      OFFSET 14.1749 -5.27545 -3.7701
      CHANNELS 6 Xposition Yposition Zposition Zrotation Xrotation Yrotation
      JOINT BackPaw.L
      {
        OFFSET 0 -1.20246e-005 1.26259e-005
        CHANNELS 6 Xposition Yposition Zposition Zrotation Xrotation Yrotation
        End Site
        {
          OFFSET 0 4.80673 0
        }
      }
      JOINT BackLegIKPole.L
      {
        OFFSET 0.227833 17.573 11.6015
        CHANNELS 6 Xposition Yposition Zposition Zrotation Xrotation Yrotation
        End Site
        {
          OFFSET 0 5.63838 0
        }
      }
    }
    JOINT BackLegIK.R
    {
      OFFSET -12.9044 -19.1551 -5.86817
      CHANNELS 6 Xposition Yposition Zposition Zrotation Xrotation Yrotation
      JOINT BackPaw.R
      {
        OFFSET 0 0 0
        CHANNELS 6 Xposition Yposition Zposition Zrotation Xrotation Yrotation
        End Site
        {
          OFFSET 0 4.80673 0
        }
      }
      JOINT BackLegIKPole.R
      {
        OFFSET -0.227834 17.573 11.6014
        CHANNELS 6 Xposition Yposition Zposition Zrotation Xrotation Yrotation
        End Site
        {
          OFFSET 0 5.63838 0
        }
      }
    }
    JOINT FrontLegIK.R
    {
      OFFSET -9.4932 30.6679 -2.7129
      CHANNELS 6 Xposition Yposition Zposition Zrotation Xrotation Yrotation
      JOINT FrontPaw.R
      {
        OFFSET 0 0 0
        CHANNELS 6 Xposition Yposition Zposition Zrotation Xrotation Yrotation
        End Site
        {
          OFFSET 0 4.33935 0
        }
      }
      JOINT FrontLegIKPole.R
      {
        OFFSET 0 27.4489 11.7029
        CHANNELS 6 Xposition Yposition Zposition Zrotation Xrotation Yrotation
        End Site
        {
          OFFSET 0 6.85387 0
        }
      }
    }
    JOINT SpineCtrl
    {
      OFFSET 0.635178 21.1139 -50.8686
      CHANNELS 6 Xposition Yposition Zposition Zrotation Xrotation Yrotation
      JOINT Spine2.001
      {
        OFFSET 0 0 0
        CHANNELS 6 Xposition Yposition Zposition Zrotation Xrotation Yrotation
        JOINT Spine2
        {
          OFFSET 0 12.1749 0
          CHANNELS 6 Xposition Yposition Zposition Zrotation Xrotation Yrotation
          JOINT Spine1
          {
            OFFSET 0 12.1749 0
            CHANNELS 6 Xposition Yposition Zposition Zrotation Xrotation Yrotation
            JOINT TailBottom
            {
              OFFSET 0 48.2991 5.34964
              CHANNELS 6 Xposition Yposition Zposition Zrotation Xrotation Yrotation
              End Site
              {
                OFFSET 0 0 0
              }
            }
            JOINT Tail1
            {
              OFFSET -0.574857 14.3966 0.537233
              CHANNELS 6 Xposition Yposition Zposition Zrotation Xrotation Yrotation
              JOINT Tail2
              {
                OFFSET 0 7.84149 0
                CHANNELS 6 Xposition Yposition Zposition Zrotation Xrotation Yrotation
                JOINT Tail3
                {
                  OFFSET 0 9.03055 0
                  CHANNELS 6 Xposition Yposition Zposition Zrotation Xrotation Yrotation
                  JOINT Tail4
                  {
                    OFFSET 0 8.20515 0
                    CHANNELS 6 Xposition Yposition Zposition Zrotation Xrotation Yrotation
                    JOINT Tail5
                    {
                      OFFSET 0 9.4978 0
                      CHANNELS 6 Xposition Yposition Zposition Zrotation Xrotation Yrotation
                      JOINT Tail6
                      {
                        OFFSET 0 6.51884 0
                        CHANNELS 6 Xposition Yposition Zposition Zrotation Xrotation Yrotation
                        End Site
                        {
                          OFFSET 0 6.10884 0
                        }
                      }
                    }
                  }
                }
              }
            }
            JOINT Bone
            {
              OFFSET 33.4069 38.6443 -2.41513
              CHANNELS 6 Xposition Yposition Zposition Zrotation Xrotation Yrotation
              JOINT TailTop
              {
                OFFSET 0 2.50112e-005 0
                CHANNELS 6 Xposition Yposition Zposition Zrotation Xrotation Yrotation
                End Site
                {
                  OFFSET 0 0 0
                }
              }
              JOINT Bone_end
              {
                OFFSET 0 12.2515 0
                CHANNELS 6 Xposition Yposition Zposition Zrotation Xrotation Yrotation
                End Site
                {
                  OFFSET 0 0 0
                }
              }
            }
            JOINT BackLeg1.L
            {
              OFFSET -1.91713 6.86269 -1.74095
              CHANNELS 6 Xposition Yposition Zposition Zrotation Xrotation Yrotation
              JOINT BackLeg2.L
              {
                OFFSET 0 10.1896 0
                CHANNELS 6 Xposition Yposition Zposition Zrotation Xrotation Yrotation
                JOINT BackLeg3.L
                {
                  OFFSET 0 27.6585 0
                  CHANNELS 6 Xposition Yposition Zposition Zrotation Xrotation Yrotation
                  JOINT BackLeg4.L
                  {
                    OFFSET 0 20.2079 0
                    CHANNELS 6 Xposition Yposition Zposition Zrotation Xrotation Yrotation
                    End Site
                    {
                      OFFSET 0 15.8172 0
                    }
                  }
                }
              }
            }
            JOINT BackLeg1.R
            {
              OFFSET -1.64678 6.86269 1.99861
              CHANNELS 6 Xposition Yposition Zposition Zrotation Xrotation Yrotation
              JOINT BackLeg2.R
              {
                OFFSET 0 11.0754 0
                CHANNELS 6 Xposition Yposition Zposition Zrotation Xrotation Yrotation
                JOINT BackLeg3.R
                {
                  OFFSET 0 25.8903 0
                  CHANNELS 6 Xposition Yposition Zposition Zrotation Xrotation Yrotation
                  JOINT BackLeg4.R
                  {
                    OFFSET 0 20.2079 0
                    CHANNELS 6 Xposition Yposition Zposition Zrotation Xrotation Yrotation
                    End Site
                    {
                      OFFSET 0 15.8171 0
                    }
                  }
                }
              }
            }
          }
        }
      }
      JOINT Spine3
      {
        OFFSET 0 0 0
        CHANNELS 6 Xposition Yposition Zposition Zrotation Xrotation Yrotation
        JOINT Neck
        {
          OFFSET 0 14.1391 0
          CHANNELS 6 Xposition Yposition Zposition Zrotation Xrotation Yrotation
          JOINT Head2
          {
            OFFSET 0 2.99801 0
            CHANNELS 6 Xposition Yposition Zposition Zrotation Xrotation Yrotation
            End Site
            {
              OFFSET 0 6.46164 0
            }
          }
        }
        JOINT HeadIK
        {
          OFFSET -0.175681 20.3563 -7.09281
          CHANNELS 6 Xposition Yposition Zposition Zrotation Xrotation Yrotation
          JOINT Head
          {
            OFFSET 0 0 0
            CHANNELS 6 Xposition Yposition Zposition Zrotation Xrotation Yrotation
            JOINT Ear.L
            {
              OFFSET 11.0469 5.26744 -12.0054
              CHANNELS 6 Xposition Yposition Zposition Zrotation Xrotation Yrotation
              End Site
              {
                OFFSET 0 10.1211 0
              }
            }
            JOINT Ear.R
            {
              OFFSET -8.84548 5.02071 -13.5443
              CHANNELS 6 Xposition Yposition Zposition Zrotation Xrotation Yrotation
              End Site
              {
                OFFSET 0 10.1211 0
              }
            }
          }
          JOINT Eyes.Base
          {
            OFFSET 0.675326 25.1229 -12.9166
            CHANNELS 6 Xposition Yposition Zposition Zrotation Xrotation Yrotation
            End Site
            {
              OFFSET 0 4.98183 0
            }
          }
          JOINT Eyes.Target
          {
            OFFSET 0.675326 25.1229 -12.9166
            CHANNELS 6 Xposition Yposition Zposition Zrotation Xrotation Yrotation
            End Site
            {
              OFFSET 0 10.8137 0
            }
          }
        }
        JOINT FrontLeg1.L
        {
          OFFSET 6.15836 4.29787 -0.644035
          CHANNELS 6 Xposition Yposition Zposition Zrotation Xrotation Yrotation
          JOINT FrontLeg2.L
          {
            OFFSET 0 18.7233 0
            CHANNELS 6 Xposition Yposition Zposition Zrotation Xrotation Yrotation
            JOINT FrontLeg3.L
            {
              OFFSET 0 16.9177 0
              CHANNELS 6 Xposition Yposition Zposition Zrotation Xrotation Yrotation
              JOINT FrontLeg4.L
              {
                OFFSET 0 10.6804 0
                CHANNELS 6 Xposition Yposition Zposition Zrotation Xrotation Yrotation
                End Site
                {
                  OFFSET 0 9.99857 0
                }
              }
            }
          }
        }
        JOINT FrontLeg1.R
        {
          OFFSET -5.81052 4.29786 -0.644037
          CHANNELS 6 Xposition Yposition Zposition Zrotation Xrotation Yrotation
          JOINT FrontLeg2.R
          {
            OFFSET 0 18.8001 0
            CHANNELS 6 Xposition Yposition Zposition Zrotation Xrotation Yrotation
            JOINT FrontLeg3.R
            {
              OFFSET 0 16.9176 0
              CHANNELS 6 Xposition Yposition Zposition Zrotation Xrotation Yrotation
              JOINT FrontLeg4.R
              {
                OFFSET 0 10.6804 0
                CHANNELS 6 Xposition Yposition Zposition Zrotation Xrotation Yrotation
                End Site
                {
                  OFFSET 0 9.99855 0
                }
              }
            }
          }
        }
      }
    }
  }
  JOINT Bone.001
  {
    OFFSET 0 -39.5765 2.47907
    CHANNELS 6 Xposition Yposition Zposition Zrotation Xrotation Yrotation
    End Site
    {
      OFFSET 0 9.50183 0
    }
  }
  JOINT Bone.002
  {
    OFFSET 6.39762 -39.5765 2.47907
    CHANNELS 6 Xposition Yposition Zposition Zrotation Xrotation Yrotation
    End Site
    {
      OFFSET 0 5.86173 0
    }
  }
}
MOTION
Frames:	4
Frame Time:	0.0416667
1.9679 50.7869 13.0653 -180 -90 -180 -0.635206 16.8572 -51.0592 -180 7.01671e-015 180 10.7636 42.2881 -10.7825 -1.76193e-005 30 -180 -1.92394e-006 2.30873e-005 3.84788e-006 -7.3805e-006 -35.3567 180 -1.92394e-006 27.4489 11.7029 1.21676e-022 6.36111e-015 -9.99662e-022 14.1749 -5.27545 -2.96314 -7.01671e-015 7.01671e-015 -180 1.1933e-006 -7.69575e-006 7.66894e-013 -2.3365e-006 -29.4393 -180 0.227833 17.573 11.6014 -1.80794e-028 0 3.24417e-012 -12.9044 -19.8007 -6.19095 -1.76563e-005 30 -180 1.17778e-006 -1.92394e-006 3.84788e-006 1.4907e-006 -29.4393 -180 -0.227835 17.573 11.6014 6.36111e-015 6.36111e-015 1.27222e-014 -9.4932 29.3767 -2.7129 -7.01671e-015 7.01671e-015 -180 -2.88591e-006 -2.88591e-006 -3.84788e-006 1.35321e-006 -35.3568 -180 0 27.4489 11.7029 0 0 -1.92796e-021 0.635178 21.0449 -50.9304 180 -79.4416 180 2.74751e-008 -2.91597e-006 -2.01036e-007 -7.60454e-005 -79.1304 -90.0009 -6.18819e-011 12.1749 5.73378e-014 2.24121e-006 2.69612e-007 3.01466e-007 -6.87269e-009 12.1749 -2.54661e-013 -21.2047 -0.000306906 -4.13418 3.48714e-006 48.2991 5.34964 -0.450778 -21.691 -40.3435 -0.478177 14.6581 0.530243 -58.6671 -4.45037 1.92106 -4.14943e-006 7.8415 -1.50308e-008 -8.15483 -0.470958 -0.034809 -8.26104e-006 9.03055 2.10431e-007 7.66308 0.442929 -0.0463756 -1.5186e-006 8.20515 -5.63654e-008 10.6884 0.619184 -0.0639075 -3.45781e-006 9.4978 1.54066e-007 9.20546 0.535166 -0.0426673 3.27301e-006 6.51884 1.33398e-007 0.0904687 -0.0981933 -0.0564464 33.4069 38.6443 -2.41513 21.2196 1.43955 3.85405 -1.53915e-005 2.50112e-005 1.68345e-006 1.90756e-006 -0.249878 -4.67396e-008 -1.43345e-014 12.2515 4.47952e-016 -0 0 9.70628e-020 -1.91713 6.86269 -1.74095 39.2826 -26.2641 -127.853 9.61969e-007 10.1896 -8.41723e-007 -132.732 69.0342 -90.5871 1.44295e-006 27.6585 -3.24665e-006 -55.8035 83.7658 71.9615 6.01231e-008 20.2079 -2.10431e-007 -3.92721 -84.755 -1.75921 -1.64678 6.86269 1.99861 50.3492 29.5578 -52.5442 -4.80985e-007 11.0754 -3.36689e-006 114.354 75.05 100.917 -9.61969e-007 25.8903 -3.84788e-006 154.227 64.3526 -170.153 3.00615e-007 20.2078 4.20862e-007 0.942474 -69.083 -1.17538 2.74774e-008 -1.90891e-006 -5.16682e-007 6.98365e-005 78.912 -5.73702e-005 1.14676e-013 14.1391 1.20247e-007 10.7136 -50.9195 17.5103 -9.01846e-008 2.99801 1.49556e-006 -7.57642 5.13312 -10.7609 -0.175681 20.3563 -7.09281 -0.631438 39.2148 3.56413 7.36508e-007 -8.512e-006 -1.28419e-006 -0.184782 0.630238 1.26632 11.0469 5.26744 -12.0054 -80.468 -53.9038 -171.486 -8.84548 5.02071 -13.5443 79.382 -62.6168 168.546 0.675326 25.1229 -12.9166 10.3641 72.1294 169.636 0.675326 25.1228 -12.9166 10.3637 72.1295 169.636 6.15837 4.29787 -0.644035 -48.4226 73.5339 44.3583 -1.68345e-006 18.7233 -9.31908e-007 7.02202 61.7618 5.93707 3.05099e-008 16.9177 2.58691e-006 -0.00021188 -64.5797 -0.000102077 1.04288e-006 10.6804 -2.12773e-007 -7.73291e-005 -33.8109 -7.49115e-005 -5.81052 4.29786 -0.644037 50.7972 72.7593 -48.5754 0 18.8001 2.07425e-006 -11.5179 62.8977 -1.97879 1.91543e-007 16.9176 7.367e-007 -0.00014882 -33.6063 0.000122154 1.84459e-007 10.6804 3.15059e-007 -2.85747e-005 -10.5016 -0.000143359 4.20862e-006 -39.5765 2.47907 -180 90 -180 6.39762 -39.5765 2.47907 -180 90 -180 
1.9679 50.7869 13.0653 -180 -90 -180 -0.635206 16.8572 -51.0592 -180 7.01671e-015 180 10.7636 42.2881 -10.7825 -1.76193e-005 30 -180 -1.97204e-006 2.2943e-005 3.75168e-006 -7.3805e-006 -35.3567 180 -1.92394e-006 27.4489 11.7029 1.21676e-022 6.36111e-015 -9.99662e-022 14.1749 -5.27545 -2.96314 -8.94697e-011 7.01671e-015 -180 1.1932e-006 -7.80398e-006 3.15647e-007 -2.33641e-006 -29.4393 -180 0.227833 17.573 11.6014 -1.7011e-017 -5.33609e-009 3.24428e-012 -12.9044 -19.8007 -6.19095 -1.76562e-005 30 -180 1.32211e-006 -1.97204e-006 3.75168e-006 1.49064e-006 -29.4393 -180 -0.227835 17.573 11.6014 6.34375e-015 6.36111e-015 1.265e-014 -9.4932 29.3767 -2.7129 -7.01671e-015 7.01671e-015 -180 -2.83781e-006 -2.86186e-006 -3.94408e-006 1.35321e-006 -35.3568 -180 0 27.4489 11.7029 0 0 -1.92796e-021 0.635178 21.0449 -50.8995 180 -79.4416 180 2.74751e-008 -2.91409e-006 -2.02774e-007 -7.60454e-005 -79.1304 -90.0009 1.26201e-010 12.1749 4.99466e-014 2.24121e-006 2.69612e-007 3.01466e-007 -6.89008e-009 12.1749 -2.48165e-013 -21.2047 -0.000306906 -4.13418 3.48413e-006 48.2991 5.34964 -0.450778 -21.691 -40.3435 -0.478177 14.6581 0.529082 -58.6671 -4.45037 1.92106 -4.13133e-006 7.8415 -1.50308e-008 -8.15482 -0.470958 -0.034809 -8.16179e-006 9.03055 2.13813e-007 7.66308 0.442929 -0.0463756 -1.39831e-006 8.20515 -5.93716e-008 10.6884 0.619184 -0.0639075 -3.33752e-006 9.4978 1.49932e-007 9.20546 0.535166 -0.0426673 3.20083e-006 6.51884 1.2856e-007 0.0904687 -0.0981933 -0.0564462 33.4069 38.6443 -2.41513 21.2196 1.43955 3.85405 -1.50067e-005 2.50112e-005 1.66842e-006 1.87087e-006 -0.249878 -4.67164e-008 0 12.2515 0 -0 0 9.70628e-020 -1.91713 6.86269 -1.74095 39.2826 -26.2641 -127.853 9.31908e-007 10.1896 -8.50742e-007 -132.732 69.0342 -90.5871 1.37682e-006 27.6585 -3.16247e-006 -55.7908 83.77 71.9487 6.91416e-008 20.2079 -1.99909e-007 -3.9263 -84.755 -1.75921 -1.64678 6.86269 1.99861 50.3492 29.5578 -52.5442 -4.74972e-007 11.0754 -3.28272e-006 114.354 75.05 100.917 -9.67982e-007 25.8903 -3.80278e-006 154.232 64.3532 -170.163 3.2241e-007 20.2078 4.23868e-007 0.942474 -69.083 -1.17538 2.74774e-008 -1.90891e-006 -5.1842e-007 6.98365e-005 78.912 -5.73702e-005 1.20051e-013 14.1391 1.14235e-007 10.7136 -50.9195 17.5103 -8.34208e-008 2.99801 1.45573e-006 -7.57643 5.13313 -10.7609 -0.175681 20.3563 -7.09281 -0.631438 39.2148 3.56413 7.2749e-007 -8.34381e-006 -1.24913e-006 -0.184782 0.630238 1.26632 11.0469 5.26744 -12.0054 -80.468 -53.9038 -171.486 -8.84548 5.02071 -13.5443 79.382 -62.6168 168.546 0.675326 25.1229 -12.9166 10.3641 72.1294 169.636 0.675326 25.1228 -12.9166 10.3637 72.1295 169.636 6.15837 4.29787 -0.644035 -48.4226 73.5339 44.3583 -1.6594e-006 18.7233 -9.80006e-007 7.02202 61.7618 5.93707 4.30694e-008 16.9177 2.55724e-006 -0.000211905 -64.5797 -0.000102101 1.02791e-006 10.6804 -2.32585e-007 -7.73352e-005 -33.8109 -7.49148e-005 -5.81052 4.29786 -0.644037 50.7972 72.7593 -48.5754 1.20246e-008 18.8001 2.0378e-006 -11.5179 62.8977 -1.97879 1.69171e-007 16.9176 7.49721e-007 -0.000162231 -33.6063 0.000111788 1.69865e-007 10.6804 2.93233e-007 -2.86465e-005 -10.5016 -0.000143373 4.20862e-006 -39.5765 2.47907 -180 90 -180 6.39762 -39.5765 2.47907 -180 90 -180 
1.9679 50.7869 13.0653 -180 -90 -180 -0.635206 16.8572 -51.0592 -180 7.01671e-015 180 10.7636 42.2881 -9.97555 -1.5566e-005 27.0247 -180 -2.02014e-006 2.27987e-005 3.65548e-006 -7.3805e-006 -35.3567 180 -1.92394e-006 27.4489 11.7029 -5.61437e-022 3.18055e-015 5.44312e-022 14.1749 -6.0824 -2.96314 -1.78958e-010 7.01671e-015 -180 1.1931e-006 -7.9122e-006 6.31293e-007 -2.33632e-006 -29.4393 -180 0.227833 17.573 11.6014 -3.4022e-017 -1.06722e-008 3.24439e-012 -12.9044 -18.3482 -6.67514 -1.76561e-005 30 -180 1.46645e-006 -2.02014e-006 3.65548e-006 1.49057e-006 -29.4393 -180 -0.227835 17.573 11.6014 6.32638e-015 3.18055e-015 1.25777e-014 -9.4932 28.7312 -3.03568 -2.09581e-006 3.92865 -180 -2.78971e-006 -2.83781e-006 -4.04027e-006 1.35321e-006 -35.3568 -180 0 27.4489 11.7029 -8.31926e-023 7.95139e-016 3.14765e-021 0.635178 21.1139 -50.8686 180 -79.4416 180 2.74751e-008 -2.91221e-006 -2.04511e-007 -7.60454e-005 -79.1304 -90.0009 3.14312e-010 12.1749 4.30034e-014 2.24121e-006 2.69612e-007 3.01466e-007 -6.90748e-009 12.1749 -2.41894e-013 -21.2047 -0.000306906 -4.13418 3.48113e-006 48.2991 5.34964 -0.450778 -21.691 -40.3435 -0.446053 14.7449 0.527921 -58.6671 -4.45037 1.92106 -4.11322e-006 7.8415 -1.50308e-008 -8.15482 -0.470958 -0.034809 -8.06255e-006 9.03055 2.17195e-007 7.66308 0.442929 -0.0463756 -1.27802e-006 8.20515 -6.23778e-008 10.6884 0.619184 -0.0639075 -3.21723e-006 9.4978 1.45799e-007 9.20546 0.535166 -0.0426673 3.12866e-006 6.51884 1.23722e-007 0.0904687 -0.0981933 -0.056446 33.4069 38.6443 -2.41513 21.2196 1.43955 3.85405 -1.46219e-005 2.50112e-005 1.65338e-006 1.83419e-006 -0.249878 -4.66931e-008 1.43345e-014 12.2515 -2.23976e-016 -0 0 9.70628e-020 -1.91713 6.86269 -1.74095 39.2826 -26.2641 -127.853 9.01846e-007 10.1896 -8.5976e-007 -132.732 69.0342 -90.5871 1.31068e-006 27.6585 -3.0783e-006 -71.6591 84.0778 87.7765 7.81601e-008 20.2079 -1.89388e-007 -3.6326 -84.3334 -1.46623 -1.64678 6.86269 1.99861 50.3492 29.5578 -52.5442 -4.6896e-007 11.0754 -3.19855e-006 114.354 75.05 100.917 -9.73994e-007 25.8903 -3.75769e-006 154.752 63.0008 -170.635 3.44205e-007 20.2078 4.26874e-007 1.45597 -76.1029 -0.68448 2.74774e-008 -1.90891e-006 -5.20158e-007 6.98365e-005 78.912 -5.73702e-005 1.26098e-013 14.1391 1.08223e-007 10.7137 -50.9195 17.5103 -7.6657e-008 2.99801 1.4159e-006 -7.57644 5.13314 -10.7609 -0.175681 20.3563 -7.09281 -0.631438 39.2148 3.56413 7.18471e-007 -8.17561e-006 -1.21406e-006 -0.184782 0.630238 1.26632 11.0469 5.26744 -12.0054 -80.468 -53.9038 -171.486 -8.84548 5.02071 -13.5443 79.382 -62.6168 168.546 0.675326 25.1229 -12.9166 10.3641 72.1294 169.636 0.675326 25.1228 -12.9166 10.3637 72.1295 169.636 6.15837 4.29787 -0.644035 -48.4226 73.5339 44.3583 -1.63535e-006 18.7233 -1.0281e-006 7.25495 60.6641 5.73291 5.56289e-008 16.9177 2.52757e-006 -0.000203386 -62.3545 -9.44779e-005 1.01294e-006 10.6804 -2.52398e-007 -7.45954e-005 -32.0304 -7.34257e-005 -5.81052 4.29786 -0.644037 50.7972 72.7593 -48.5754 2.40492e-008 18.8001 2.00135e-006 -11.3132 65.3673 -2.16299 1.46798e-007 16.9176 7.62742e-007 -0.000172034 -35.2704 0.000103463 1.55271e-007 10.6804 2.71406e-007 -3.16841e-005 -11.6624 -0.000143956 4.20862e-006 -39.5765 2.47907 -180 90 -180 6.39762 -39.5765 2.47907 -180 90 -180 
1.9679 50.7869 13.0653 -180 -90 -180 -0.635206 16.8572 -51.0592 -180 7.01671e-015 180 10.7636 42.2881 -9.16859 -1.36084e-005 24.033 -180 -2.06823e-006 2.26544e-005 3.55929e-006 -7.3805e-006 -35.3567 180 -1.92394e-006 27.4489 11.7029 -1.22675e-022 0 -4.23927e-022 14.1749 -6.88936 -2.96314 -2.6842e-010 7.01671e-015 -180 1.19301e-006 -8.02042e-006 9.4694e-007 -2.33623e-006 -29.4393 -180 0.227833 17.573 11.6014 -5.10331e-017 -1.60083e-008 3.2445e-012 -12.9044 -16.8957 -7.15931 -1.7656e-005 30 -180 1.61078e-006 -2.06823e-006 3.55929e-006 1.4905e-006 -29.4393 -180 -0.227834 17.573 11.6014 6.30902e-015 3.18055e-015 1.25054e-014 -9.4932 28.0856 -3.35846 -4.23574e-006 7.90199 -180 -2.74161e-006 -2.81376e-006 -4.13647e-006 1.35321e-006 -35.3568 -180 -1.79181e-015 27.4489 11.7029 5.8672e-023 0 8.19684e-022 0.635178 21.3216 -50.6825 180 -79.4416 180 2.74751e-008 -2.91033e-006 -2.06249e-007 -7.60454e-005 -79.1304 -90.0009 5.02416e-010 12.1749 3.56122e-014 2.24121e-006 2.69612e-007 3.01466e-007 -6.92488e-009 12.1749 -2.35175e-013 -21.2047 -0.000306906 -4.13418 3.47812e-006 48.2991 5.34964 -0.450778 -21.691 -40.3435 -0.381498 14.9195 0.523254 -58.6671 -4.45037 1.92106 -4.09512e-006 7.8415 -1.50308e-008 -8.15482 -0.470958 -0.034809 -7.9633e-006 9.03055 2.20577e-007 7.66308 0.442929 -0.0463756 -1.15773e-006 8.20515 -6.53839e-008 10.6884 0.619184 -0.0639075 -3.09693e-006 9.4978 1.41665e-007 9.20546 0.535166 -0.0426673 3.05648e-006 6.51884 1.18884e-007 0.0946576 -0.0976886 -0.0564458 33.4069 38.6443 -2.41513 21.2196 1.43955 3.85405 -1.42371e-005 2.50112e-005 1.63835e-006 1.7975e-006 -0.249878 -4.66699e-008 -1.43345e-014 12.2515 2.23976e-016 -0 0 9.70628e-020 -1.91713 6.86269 -1.74095 39.2826 -26.2641 -127.853 8.71785e-007 10.1896 -8.68779e-007 -132.732 69.0342 -90.5871 1.24455e-006 27.6585 -2.99413e-006 -91.9387 83.7894 108.009 8.71785e-008 20.2079 -1.78866e-007 -3.58153 -84.319 -1.41586 -1.64678 6.86269 1.99861 50.3492 29.5578 -52.5442 -4.62948e-007 11.0754 -3.11438e-006 114.354 75.05 100.917 -9.80006e-007 25.8903 -3.7126e-006 155.239 61.6614 -171.075 3.65999e-007 20.2078 4.2988e-007 2.77781 -82.6088 0.616712 2.74774e-008 -1.90891e-006 -5.21896e-007 6.98365e-005 78.912 -5.73702e-005 1.31922e-013 14.1391 1.0221e-007 10.7137 -50.9195 17.5104 -6.98931e-008 2.99801 1.37607e-006 -7.57645 5.13314 -10.7609 -0.175681 20.3563 -7.09281 -0.631438 39.2148 3.56413 7.09453e-007 -8.00742e-006 -1.179e-006 -0.184782 0.630238 1.26632 11.0469 5.26744 -12.0054 -80.468 -53.9038 -171.486 -8.84548 5.02071 -13.5443 79.382 -62.6168 168.546 0.675326 25.1229 -12.9166 10.3641 72.1294 169.636 0.675326 25.1228 -12.9166 10.3637 72.1295 169.636 6.15837 4.29787 -0.644035 -48.4226 73.5339 44.3583 -1.6113e-006 18.7233 -1.0762e-006 7.37764 60.054 5.62628 6.81884e-008 16.9177 2.4979e-006 -0.000197403 -60.5646 -8.9223e-005 9.97971e-007 10.6804 -2.72211e-007 -7.24702e-005 -30.5989 -7.23213e-005 -5.81052 4.29786 -0.644037 50.7972 72.7593 -48.5754 3.60739e-008 18.8001 1.9649e-006 -11.004 68.3843 -2.44746 1.24426e-007 16.9176 7.75762e-007 -0.000181686 -37.2958 9.53312e-005 1.40677e-007 10.6804 2.4958e-007 -3.54129e-005 -13.08 -0.000144754 4.20862e-006 -39.5765 2.47907 -180 90 -180 6.39762 -39.5765 2.47907 -180 90 -180 
